<svg xmlns="http://www.w3.org/2000/svg" viewBox="0 0 28 32"><path d="M28 22V3.6c0-2-1.5-3.6-3.4-3.6H3.4C1.5 0 0 1.6 0 3.6V25c0 2 1.5 3.6 3.4 3.6h16C23.3 30.1 28 32 28 32V22zm-12.9-.3c-.3.3-.8.5-1.4.5-.6 0-1-.2-1.4-.5-.3-.3-.5-.8-.5-1.3 0-.6.2-1 .5-1.3.3-.3.8-.5 1.4-.5.6 0 1 .2 1.4.5s.5.8.5 1.3c-.1.5-.2 1-.5 1.3zm3.4-9.6c-.4.6-1 1.2-2 1.9-.7.5-1.1.9-1.3 1.1-.2.3-.3.6-.3 1v.6h-2.8V16c0-.7.1-1.3.4-1.8.3-.5.8-1 1.6-1.6.7-.5 1.2-1 1.5-1.3s.4-.7.4-1.1c0-.5-.2-.8-.5-1s-.8-.4-1.4-.4c-1.1 0-2.3.3-3.6 1L9.3 7.5c1.6-.9 3.2-1.3 5-1.3 1.4 0 2.6.3 3.5 1 .9.7 1.3 1.6 1.3 2.8 0 .8-.2 1.5-.6 2.1z"/></svg>