<svg xmlns="http://www.w3.org/2000/svg" viewBox="0 0 25 25"><circle cx="12.5" cy="12.5" r="2.6"/><path d="M16.2 6H8.8C7.2 6 5.9 7.3 5.9 9v7c0 1.6 1.3 2.9 2.9 2.9h7.4c1.6 0 2.9-1.3 2.9-2.9V8.9c0-1.6-1.3-2.9-2.9-2.9zm-3.7 10.6c-2.3 0-4.1-1.9-4.1-4.1 0-2.3 1.9-4.1 4.1-4.1s4.1 1.8 4.1 4.1-1.8 4.1-4.1 4.1zm4.3-7.5c-.5 0-.9-.4-.9-.9s.4-.9.9-.9.9.4.9.9-.4.9-.9.9z"/><path d="M23 0H2C.9 0 0 .9 0 2v21c0 1.1.9 2 2 2h21c1.1 0 2-.9 2-2V2c0-1.1-.9-2-2-2zm-2.4 16.2c0 2.4-2 4.3-4.3 4.3H8.7c-2.4 0-4.3-2-4.3-4.3V8.9c0-2.4 2-4.3 4.3-4.3h7.6c2.4 0 4.3 1.9 4.3 4.3v7.3z"/></svg>