<svg xmlns="http://www.w3.org/2000/svg" viewBox="0 0 246.6 241.5"><path d="M181.6 0H65C29.2 0 0 29.2 0 65v111.5c0 35.8 29.2 65 65 65h116.6c35.8 0 65-29.2 65-65V65c0-35.8-29.2-65-65-65zm42.9 174.8c0 24.8-20.3 45-45 45H67.1c-24.8 0-45-20.2-45-45V66.6c0-24.7 20.2-45 45-45h112.5c24.8 0 45 20.3 45 45v108.2z"/><path d="M123.3 58.7c-34.2 0-62 27.8-62 62s27.8 62 62 62 62-27.8 62-62-27.8-62-62-62zm0 102c-22.1 0-40-17.9-40-40s17.9-40 40-40 40 17.9 40 40-17.9 40-40 40z"/><ellipse transform="rotate(-79.1 188.608 55.41)" cx="188.6" cy="55.4" rx="14" ry="14"/></svg>