<svg xmlns="http://www.w3.org/2000/svg" viewBox="0 0 42.3 36"><path d="M40.3 29.1c.4-.1.6-.3.6-.7 0-.5-.3-.7-.9-.7h-1v2.5h.4v-1.1h.4l.7 1.1h.5l-.7-1.1zm-.4-.3h-.4V28h.5c.3 0 .6 0 .6.4s-.4.4-.7.4z"/><path d="M39.9 26.6c-1.3 0-2.4 1-2.4 2.4 0 1.3 1 2.4 2.4 2.4 1.3 0 2.4-1 2.4-2.4s-1.1-2.4-2.4-2.4zm0 4.4c-1.1 0-2-.9-2-2.1 0-1.2.9-2.1 2-2.1s2 .9 2 2.1c0 1.2-.9 2.1-2 2.1zM33.3 0H2.7C1.2 0 0 1.2 0 2.6v30.8C0 34.8 1.2 36 2.7 36h30.7c1.5 0 2.7-1.2 2.7-2.6V2.6C36 1.2 34.8 0 33.3 0zM10.7 30.7H5.3V13.5h5.3v17.2zM8 11.1c-1.7 0-3.1-1.4-3.1-3.1 0-1.7 1.4-3 3.1-3 1.7 0 3.1 1.4 3.1 3.1 0 1.7-1.4 3-3.1 3zm22.7 19.6h-5.3v-8.4c0-2 0-4.6-2.8-4.6s-3.2 2.2-3.2 4.4v8.5H14V13.5h5.1v2.3h.1c.7-1.4 2.5-2.8 5.1-2.8 5.4 0 6.4 3.6 6.4 8.2v9.5z"/></svg>