<svg xmlns="http://www.w3.org/2000/svg" width="485.213" height="485.212"><path d="M121.305 30.327h242.604v60.651h30.327V30.327C394.236 13.595 380.674 0 363.909 0H121.305c-16.731 0-30.327 13.595-30.327 30.327v60.651h30.327V30.327zM454.89 121.304H30.328c-16.731 0-30.327 13.591-30.327 30.324v151.629c0 16.764 13.595 30.327 30.327 30.327h60.651v121.302c0 16.764 13.595 30.326 30.327 30.326H363.91c16.765 0 30.327-13.562 30.327-30.326V333.584h60.653c16.759 0 30.322-13.563 30.322-30.327V151.628c0-16.733-13.564-30.324-30.322-30.324zm-90.981 333.582H121.305v-212.28h242.604v212.28zm60.653-242.604c-16.764 0-30.326-13.564-30.326-30.327 0-16.731 13.562-30.327 30.326-30.327 16.765 0 30.327 13.595 30.327 30.327.001 16.762-13.562 30.327-30.327 30.327z"/><path d="M151.629 272.93h121.304v30.327H151.629zM151.629 333.584h181.958v30.321H151.629zM151.629 394.237h181.958v30.322H151.629z"/></svg>